<?xml version="1.0" standalone="no"?>
<!DOCTYPE svg PUBLIC "-//W3C//DTD SVG 20010904//EN"
 "http://www.w3.org/TR/2001/REC-SVG-20010904/DTD/svg10.dtd">
<svg version="1.0" xmlns="http://www.w3.org/2000/svg"
 width="256.000000pt" height="256.000000pt" viewBox="0 0 256.000000 256.000000"
 preserveAspectRatio="xMidYMid meet">
<metadata>
Created by potrace 1.14, written by Peter Selinger 2001-2017
</metadata>
<g transform="translate(0.000000,256.000000) scale(0.100000,-0.100000)"
fill="#000000" stroke="none">
<path d="M0 1280 l0 -1280 1280 0 1280 0 0 1280 0 1280 -1280 0 -1280 0 0
-1280z m2181 691 c19 -6 44 -19 55 -30 31 -28 87 -197 79 -237 -3 -18 -36 -75
-72 -125 -75 -105 -239 -376 -335 -554 -81 -150 -81 -152 -60 -164 16 -9 15
-14 -12 -63 -107 -196 -179 -255 -237 -197 -81 81 98 434 471 929 91 121 115
160 104 164 -31 12 -309 6 -413 -9 -190 -28 -481 -109 -481 -135 0 -5 30 -13
68 -20 72 -12 101 -24 88 -37 -12 -12 -259 -3 -275 10 -18 15 -9 109 19 201
50 161 169 222 520 271 120 16 424 14 481 -4z m-1207 -20 c72 -68 75 -210 7
-411 -51 -153 -150 -358 -265 -548 -60 -100 -85 -149 -81 -163 9 -29 -92 -192
-114 -184 -32 12 -81 50 -87 67 -3 11 39 91 116 220 126 210 260 472 326 638
41 103 54 190 34 215 -55 66 -343 -117 -455 -290 -63 -96 -53 -147 21 -111 42
20 54 20 54 2 0 -17 -102 -106 -147 -130 -30 -15 -36 -15 -63 -1 -40 21 -99
83 -107 113 -9 36 10 87 69 186 105 177 273 321 458 393 106 42 193 43 234 4z"/>
</g>
</svg>
